HIERARCHY
ROOT Hips
{
	OFFSET 0.000000 0.000000 0.000000
	CHANNELS 6 Xposition Yposition Zposition Xrotation Yrotation Zrotation
	JOINT LeftUpLeg_virtual
	{
		OFFSET 0.000000 0.000000 0.000000
		CHANNELS 3 Xrotation Yrotation Zrotation
		JOINT LeftUpLeg
		{
			OFFSET 13.026900 -6.336304 -1.092800
			CHANNELS 3 Xrotation Yrotation Zrotation
			JOINT LeftLeg
			{
				OFFSET 0.524474 -46.096886 9.782700
				CHANNELS 3 Xrotation Yrotation Zrotation
				JOINT LeftFoot
				{
					OFFSET -0.524474 -53.427422 -12.948200
					CHANNELS 3 Xrotation Yrotation Zrotation
					JOINT LeftToeBase
					{
						OFFSET 0.192200 -14.009700 16.364100
						CHANNELS 3 Xrotation Yrotation Zrotation
						JOINT LeftToe_End
						{
							OFFSET -1.784700 -0.561700 9.474800
							CHANNELS 3 Xrotation Yrotation Zrotation
							End Site
							{
								OFFSET 0 0 0
							}
						}
					}
				}
			}
		}
	}
	JOINT RightUpLeg_virtual
	{
		OFFSET 0.000000 0.000000 0.000000
		CHANNELS 3 Xrotation Yrotation Zrotation
		JOINT RightUpLeg
		{
			OFFSET -12.883000 -6.336304 -1.092800
			CHANNELS 3 Xrotation Yrotation Zrotation
			JOINT RightLeg
			{
				OFFSET -0.524587 -46.096825 9.782800
				CHANNELS 3 Xrotation Yrotation Zrotation
				JOINT RightFoot
				{
					OFFSET 0.524587 -53.427383 -12.948300
					CHANNELS 3 Xrotation Yrotation Zrotation
					JOINT RightToeBase
					{
						OFFSET -0.192200 -14.009700 16.364100
						CHANNELS 3 Xrotation Yrotation Zrotation
						JOINT RightToe_End
						{
							OFFSET 1.784700 -0.561700 9.474800
							CHANNELS 3 Xrotation Yrotation Zrotation
							End Site
							{
								OFFSET 0 0 0
							}
						}
					}
				}
			}
		}
	}
	JOINT Spine_virtual
	{
		OFFSET 0.000000 0.000000 0.000000
		CHANNELS 3 Xrotation Yrotation Zrotation
		JOINT Spine
		{
			OFFSET 0.072000 7.257294 -0.789700
			CHANNELS 3 Xrotation Yrotation Zrotation
			JOINT Spine1
			{
				OFFSET 0.000000 12.508769 -0.658067
				CHANNELS 3 Xrotation Yrotation Zrotation
				JOINT Spine1_split
				{
					OFFSET 0.000000 12.508769 -0.658067
					CHANNELS 3 Xrotation Yrotation Zrotation
					JOINT Spine2
					{
						OFFSET 0.000000 12.508769 -0.658067
						CHANNELS 3 Xrotation Yrotation Zrotation
						JOINT Neck_virtual
						{
							OFFSET 0.000000 0.000000 0.000000
							CHANNELS 3 Xrotation Yrotation Zrotation
							JOINT Neck
							{
								OFFSET 0.000000 14.033295 7.520400
								CHANNELS 3 Xrotation Yrotation Zrotation
								JOINT Head
								{
									OFFSET 0.000000 8.198502 5.703100
									CHANNELS 3 Xrotation Yrotation Zrotation
									JOINT HeadTop_End
									{
										OFFSET 0.000000 17.760803 13.332701
										CHANNELS 3 Xrotation Yrotation Zrotation
										End Site
										{
											OFFSET 0 0 0
										}
									}
								}
							}
						}
						JOINT LeftShoulder_virtual
						{
							OFFSET 0.000000 0.000000 0.000000
							CHANNELS 3 Xrotation Yrotation Zrotation
							JOINT LeftShoulder
							{
								OFFSET 6.292450 5.785301 -0.669000
								CHANNELS 3 Xrotation Yrotation Zrotation
								JOINT LeftShoulder_split
								{
									OFFSET 6.292450 5.785301 -0.669000
									CHANNELS 3 Xrotation Yrotation Zrotation
									JOINT LeftArm
									{
										OFFSET 13.907140 -6.093903 1.965100
										CHANNELS 3 Xrotation Yrotation Zrotation
										JOINT LeftForeArm
										{
											OFFSET 34.140198 0.000000 0.000000
											CHANNELS 3 Xrotation Yrotation Zrotation
											JOINT LeftHand
											{
												OFFSET 40.960209 0.000000 0.000000
												CHANNELS 3 Xrotation Yrotation Zrotation
												End Site
												{
													OFFSET 0 0 0
												}
											}
										}
									}
								}
							}
						}
						JOINT RightShoulder_virtual
						{
							OFFSET 0.000000 0.000000 0.000000
							CHANNELS 3 Xrotation Yrotation Zrotation
							JOINT RightShoulder
							{
								OFFSET -6.292450 5.785301 -0.669000
								CHANNELS 3 Xrotation Yrotation Zrotation
								JOINT RightShoulder_split
								{
									OFFSET -6.292450 5.785301 -0.669000
									CHANNELS 3 Xrotation Yrotation Zrotation
									JOINT RightArm
									{
										OFFSET -13.907140 -6.093903 1.965100
										CHANNELS 3 Xrotation Yrotation Zrotation
										JOINT RightForeArm
										{
											OFFSET -34.140198 0.000000 0.000000
											CHANNELS 3 Xrotation Yrotation Zrotation
											JOINT RightHand
											{
												OFFSET -40.960209 0.000000 0.000000
												CHANNELS 3 Xrotation Yrotation Zrotation
												End Site
												{
													OFFSET 0 0 0
												}
											}
										}
									}
								}
							}
						}
					}
				}
			}
		}
	}
}
MOTION
Frames: 11
Frame Time: 0.03333333
-37.447132 55.163738 327.725220 0.000000 0.000000 0.000000 -172.412239 16.343610 178.697707 -89.811264 -9.669252 33.012685 94.173419 -7.266624 -7.025780 8.824106 -7.687520 9.484548 -3.403671 0.240932 -0.762900 0.000000 0.000000 0.000000 -172.660052 15.328766 177.857880 -88.302291 13.413529 -29.230802 94.695573 3.844492 6.557465 1.071939 4.923423 -6.289915 1.431056 1.002154 1.566818 0.000000 0.000000 0.000000 -172.646910 17.305264 -179.912251 18.709799 -3.692249 -7.123538 4.182878 -0.214904 -2.574360 0.838329 -0.104645 0.385616 0.000000 0.000000 0.000000 4.894987 -0.718645 -1.831055 -1.592682 -0.088363 -1.143984 -20.270128 0.115719 7.864302 0.000000 0.000000 0.000000 3.998521 -0.481463 -2.413445 0.988077 -2.888672 -11.263234 -3.196025 -0.179567 1.611982 -15.365950 -40.244164 -44.642250 0.490426 -58.652617 0.927547 0.000000 0.000000 0.000000 5.038663 -0.591267 -1.887507 -2.745006 19.312566 -1.272123 -1.507109 0.663811 0.658042 -25.899500 26.397498 30.504021 -179.930241 69.142148 179.616217 0.000000 0.000000 0.000000 
-37.429436 55.163082 327.701630 0.000000 0.000000 0.000000 -172.450228 16.390523 178.662476 -89.852757 -9.729764 32.971652 94.243551 -7.276419 -7.011143 8.835895 -7.669709 9.516462 -3.407135 0.241191 -0.784995 0.000000 0.000000 0.000000 -172.704953 15.344653 177.830614 -88.377409 13.331950 -29.270226 94.692445 3.843954 6.579458 1.097026 4.876187 -6.299772 1.450741 0.997681 1.570381 0.000000 0.000000 0.000000 -172.690938 17.333181 -179.914628 18.627232 -3.639552 -7.160947 4.154887 -0.201758 -2.578911 0.838039 -0.111166 0.389924 0.000000 0.000000 0.000000 4.866556 -0.690083 -1.860145 -1.573060 -0.222048 -1.077673 -21.022187 -0.037851 7.951233 0.000000 0.000000 0.000000 4.016421 -0.471805 -2.424052 0.971225 -2.883187 -11.267102 -3.392366 -0.079769 1.540310 -15.319011 -40.359093 -44.585525 0.559380 -58.512482 0.995684 0.000000 0.000000 0.000000 5.027480 -0.568533 -1.910096 -3.061072 18.482319 -2.172796 -1.430834 0.625717 0.670159 -27.563146 26.642973 31.020629 179.812407 68.273451 -179.998721 0.000000 0.000000 0.000000 
-37.416229 55.164803 327.688446 0.000000 0.000000 0.000000 -172.486947 16.453166 178.612766 -89.897816 -9.788098 32.927232 94.297100 -7.284789 -6.982145 8.855480 -7.649334 9.538736 -3.413073 0.240364 -0.806270 0.000000 0.000000 0.000000 -172.746768 15.382045 177.787912 -88.447965 13.247429 -29.309469 94.695020 3.843689 6.597404 1.140521 4.823754 -6.302263 1.459924 0.993536 1.572368 0.000000 0.000000 0.000000 -172.731249 17.383494 -179.939571 18.542092 -3.599497 -7.179946 4.133936 -0.199369 -2.575274 0.837665 -0.127716 0.394633 0.000000 0.000000 0.000000 4.846292 -0.669012 -1.880777 -1.565458 -0.347811 -1.020731 -21.728046 -0.214629 8.030844 0.000000 0.000000 0.000000 4.054514 -0.476565 -2.422601 0.951325 -2.903554 -11.319042 -3.579983 -0.017988 1.499111 -15.209107 -40.460750 -44.525173 0.609411 -58.426005 1.023310 0.000000 0.000000 0.000000 5.022075 -0.558194 -1.921598 -3.334104 17.778856 -2.874024 -1.318302 0.572281 0.639974 -29.061673 26.918539 31.345794 179.679095 67.697700 -179.738914 0.000000 0.000000 0.000000 
-37.411983 55.171406 327.682373 0.000000 0.000000 0.000000 -172.523530 16.535717 178.554286 -89.948066 -9.837605 32.875022 94.327016 -7.292078 -6.940432 8.887376 -7.631971 9.546315 -3.429341 0.237262 -0.822340 0.000000 0.000000 0.000000 -172.785304 15.448293 177.732560 -88.505762 13.164560 -29.348500 94.694733 3.839321 6.613335 1.182136 4.765230 -6.309724 1.474800 0.989848 1.575403 0.000000 0.000000 0.000000 -172.766493 17.455554 -179.988885 18.453838 -3.570377 -7.181622 4.121097 -0.206246 -2.563632 0.858961 -0.145381 0.389490 0.000000 0.000000 0.000000 4.834288 -0.656101 -1.890605 -1.563835 -0.465252 -0.977426 -22.392534 -0.409691 8.096073 0.000000 0.000000 0.000000 4.102802 -0.490942 -2.409426 0.929462 -2.949110 -11.401170 -3.783611 0.006134 1.498295 -15.046622 -40.541506 -44.448300 0.612482 -58.370476 0.994339 0.000000 0.000000 0.000000 5.017976 -0.558667 -1.921605 -3.566650 17.176983 -3.418567 -1.185914 0.482581 0.586419 -30.423797 27.235383 31.521156 179.637390 67.253362 -179.585126 0.000000 0.000000 0.000000 
-37.416035 55.179436 327.684753 0.000000 0.000000 0.000000 -172.558459 16.638127 178.490328 -90.000727 -9.877028 32.810258 94.336879 -7.297788 -6.887681 8.932114 -7.616800 9.543264 -3.452352 0.231593 -0.833444 0.000000 0.000000 0.000000 -172.821053 15.542731 177.673014 -88.549031 13.091173 -29.386944 94.691086 3.829076 6.628726 1.212129 4.703814 -6.330043 1.500616 0.986720 1.581077 0.000000 0.000000 0.000000 -172.796969 17.543773 179.945582 18.362304 -3.549749 -7.171378 4.114946 -0.218499 -2.547167 0.898920 -0.172373 0.380290 0.000000 0.000000 0.000000 4.826709 -0.650567 -1.892261 -1.562908 -0.575057 -0.949597 -23.016245 -0.610965 8.141878 0.000000 0.000000 0.000000 4.153156 -0.510487 -2.389537 0.908099 -3.011238 -11.491919 -3.992637 0.009649 1.525580 -14.854586 -40.590885 -44.353073 0.552413 -58.311470 0.910076 0.000000 0.000000 0.000000 5.011580 -0.567097 -1.913515 -3.772285 16.637743 -3.869878 -1.085395 0.352074 0.515549 -31.690787 27.583214 31.626580 179.656064 66.819146 -179.522233 0.000000 0.000000 0.000000 
-37.428810 55.187012 327.691406 0.000000 0.000000 0.000000 -172.591231 16.756607 178.428365 -90.053859 -9.906699 32.731329 94.330281 -7.300164 -6.829616 8.982482 -7.600935 9.533765 -3.471234 0.223536 -0.842512 0.000000 0.000000 0.000000 -172.853988 15.655133 177.613687 -88.582984 13.033889 -29.426651 94.685280 3.816389 6.642368 1.235898 4.645014 -6.354414 1.529561 0.983998 1.587936 0.000000 0.000000 0.000000 -172.821449 17.644499 179.868852 18.269701 -3.534849 -7.156866 4.112156 -0.232381 -2.529755 0.939435 -0.187150 0.369454 0.000000 0.000000 0.000000 4.816453 -0.649635 -1.888308 -1.557229 -0.679171 -0.936830 -23.597977 -0.808031 8.169831 0.000000 0.000000 0.000000 4.194252 -0.531270 -2.369000 0.887876 -3.079889 -11.582190 -4.195127 0.003363 1.573293 -14.646010 -40.596435 -44.229221 0.432011 -58.208020 0.781806 0.000000 0.000000 0.000000 4.999561 -0.578869 -1.902222 -3.965007 16.132630 -4.281809 -0.990859 0.233075 0.415336 -32.920566 27.899072 31.751504 179.709490 66.366674 -179.533858 0.000000 0.000000 0.000000 
-37.446667 55.193890 327.699371 0.000000 0.000000 0.000000 -172.621720 16.882687 178.374078 -90.101827 -9.931049 32.638144 94.313301 -7.296528 -6.773733 9.027033 -7.579409 9.524578 -3.479176 0.213501 -0.853364 0.000000 0.000000 0.000000 -172.884492 15.776661 177.558568 -88.613358 12.994930 -29.464248 94.680082 3.809385 6.648751 1.257075 4.600126 -6.361046 1.547687 0.980961 1.593025 0.000000 0.000000 0.000000 -172.841106 17.753204 179.793856 18.177903 -3.523820 -7.145434 4.109317 -0.245604 -2.512509 0.977895 -0.206304 0.372308 0.000000 0.000000 0.000000 4.798396 -0.652282 -1.883382 -1.550210 -0.780544 -0.935754 -24.148328 -0.991835 8.175369 0.000000 0.000000 0.000000 4.221598 -0.549818 -2.353644 0.868654 -3.144879 -11.665343 -4.368563 -0.003739 1.616164 -14.451956 -40.567680 -44.099847 0.271205 -58.054668 0.635178 0.000000 0.000000 0.000000 4.981492 -0.589906 -1.891187 -4.162804 15.643906 -4.693313 -0.897540 0.132360 0.323757 -34.112048 28.147850 31.952086 179.757083 65.937970 -179.582462 0.000000 0.000000 0.000000 
-37.466877 55.198704 327.702148 0.000000 0.000000 0.000000 -172.650353 17.006295 178.332209 -90.142883 -9.954670 32.533547 94.287988 -7.288472 -6.724466 9.058384 -7.551936 9.516687 -3.477902 0.202316 -0.866778 0.000000 0.000000 0.000000 -172.913465 15.895445 177.511986 -88.640310 12.971270 -29.499515 94.681052 3.811745 6.645605 1.275465 4.576203 -6.342109 1.551824 0.977564 1.594689 0.000000 0.000000 0.000000 -172.857376 17.863535 179.731073 18.089614 -3.516744 -7.143196 4.103857 -0.256888 -2.497212 0.998229 -0.222961 0.394725 0.000000 0.000000 0.000000 4.772511 -0.656890 -1.879718 -1.542938 -0.877868 -0.945471 -24.673102 -1.150649 8.154251 0.000000 0.000000 0.000000 4.230358 -0.566135 -2.345008 0.848597 -3.197691 -11.744628 -4.498412 -0.032231 1.641100 -14.270768 -40.524066 -43.968745 0.114170 -57.889719 0.506077 0.000000 0.000000 0.000000 4.956256 -0.598734 -1.881969 -4.378185 15.160684 -5.114388 -0.785903 0.065875 0.241328 -35.234593 28.307432 32.258044 179.790127 65.600320 -179.652389 0.000000 0.000000 0.000000 
-37.484589 55.203526 327.697418 0.000000 0.000000 0.000000 -172.677851 17.122434 178.303946 -90.177430 -9.982988 32.426005 94.256631 -7.281716 -6.685637 9.080117 -7.524686 9.505695 -3.477304 0.190424 -0.880775 0.000000 0.000000 0.000000 -172.940622 16.005483 177.472534 -88.663703 12.953117 -29.532181 94.692240 3.820211 6.637114 1.284493 4.570182 -6.306344 1.558786 0.974130 1.593825 0.000000 0.000000 0.000000 -172.871664 17.972089 179.684601 18.004915 -3.514168 -7.153426 4.098217 -0.265450 -2.484048 1.011568 -0.230176 0.409322 0.000000 0.000000 0.000000 4.742947 -0.662366 -1.878163 -1.540939 -0.969844 -0.967617 -25.180338 -1.272173 8.099702 0.000000 0.000000 0.000000 4.221938 -0.578551 -2.341572 0.826643 -3.235192 -11.825768 -4.598348 -0.080019 1.647721 -14.102650 -40.482869 -43.838186 -0.006648 -57.741948 0.417895 0.000000 0.000000 0.000000 4.925067 -0.605118 -1.874726 -4.621558 14.678654 -5.541869 -0.657676 0.023396 0.193852 -36.237091 28.385834 32.653212 179.802599 65.401384 -179.719858 0.000000 0.000000 0.000000 
-37.499332 55.207554 327.680847 0.000000 0.000000 0.000000 -172.704106 17.230844 178.285423 -90.206889 -10.020503 32.322132 94.223546 -7.280989 -6.658322 9.100261 -7.500737 9.491455 -3.483386 0.178097 -0.893696 0.000000 0.000000 0.000000 -172.965566 16.101980 177.438793 -88.684344 12.933738 -29.560840 94.712526 3.830362 6.627661 1.278300 4.577641 -6.266806 1.586027 0.971190 1.592605 0.000000 0.000000 0.000000 -172.887169 18.071350 179.656324 17.921667 -3.517837 -7.176332 4.095425 -0.271262 -2.473734 1.022051 -0.248732 0.428251 0.000000 0.000000 0.000000 4.715664 -0.668083 -1.879258 -1.547214 -1.052445 -1.002028 -25.670281 -1.343587 8.006503 0.000000 0.000000 0.000000 4.202362 -0.587609 -2.340703 0.801673 -3.259111 -11.906965 -4.680206 -0.124065 1.639187 -13.955897 -40.445590 -43.718227 -0.079145 -57.625097 0.377645 0.000000 0.000000 0.000000 4.890852 -0.608709 -1.868651 -4.899087 14.194488 -5.960546 -0.537335 -0.009537 0.187144 -37.097554 28.419003 33.100456 179.804388 65.316341 -179.780182 0.000000 0.000000 0.000000 
-37.508324 55.210911 327.654053 0.000000 0.000000 0.000000 -172.729146 17.333796 178.272322 -90.233718 -10.066545 32.226472 94.193035 -7.288713 -6.639891 9.120292 -7.481198 9.476951 -3.489483 0.165651 -0.906161 0.000000 0.000000 0.000000 -172.987928 16.181157 177.410913 -88.705204 12.911929 -29.585063 94.737907 3.838682 6.621280 1.263271 4.592013 -6.232155 1.630624 0.969136 1.593266 0.000000 0.000000 0.000000 -172.902865 18.159140 179.639439 17.836020 -3.528214 -7.209927 4.097471 -0.275040 -2.467262 1.036408 -0.258700 0.432201 0.000000 0.000000 0.000000 4.696244 -0.672033 -1.882991 -1.562429 -1.124475 -1.048686 -26.136016 -1.361311 7.876640 0.000000 0.000000 0.000000 4.177614 -0.593685 -2.340710 0.774527 -3.273346 -11.989459 -4.753817 -0.145203 1.646190 -13.841654 -40.400986 -43.613459 -0.108643 -57.545143 0.375930 0.000000 0.000000 0.000000 4.855732 -0.610610 -1.863556 -5.211089 13.701670 -6.360798 -0.472033 -0.045747 0.212612 -37.843507 28.438567 33.559124 179.812107 65.294430 -179.838444 0.000000 0.000000 0.000000 
